# xmcd CD database file
#
# Track frame offsets:
#	150
#	11748
#	22429
#	29840
#	46334
#	62182
#	72869
#	83154
#	93223
#	102818
#	112045
#	122504
#	136185
#	145424
#	157001
#	170525
#	188951
#	202854
#	215678
#	227806
#	239999
#	254712
#	268565
#	279838
#	290896
#	302108
#	310397
#
# Disc length: 4287 seconds
#
# Revision: 1
# Processed by: cddbd v1.4PL0 Copyright (c) Steve Scherf et al.
# Submitted via: CDex 1.40Beta8
#
DISCID=a610bd1b
DTITLE=Trampske - 80let trampingu (1)
DYEAR=1998
DGENRE=Country
TTITLE0=Vlajka
TTITLE1=Kamarad
TTITLE2=Mavej
TTITLE3=Cajova ruze
TTITLE4=Zlaty udoli
TTITLE5=Posledni mile
TTITLE6=Pada soumrak bledy
TTITLE7=Zlatokop Tom
TTITLE8=Bitovske jezero
TTITLE9=Rikatado
TTITLE10=Stara pacificka
TTITLE11=Bila bonanza
TTITLE12=Vzpominka na svatojanske proudy
TTITLE13=Rodne udoli
TTITLE14=Silhavy marinak
TTITLE15=Osamely mesto (Tereza)
TTITLE16=Az ztichnou bile skaly
TTITLE17=Velrybarska vyprava
TTITLE18=Reka zpiva
TTITLE19=Trampe kamarade
TTITLE20=San Ariano
TTITLE21=Co nevidet se sejdem
TTITLE22=To nase mladi
TTITLE23=Vandrovnici
TTITLE24=Cariboo
TTITLE25=O luno ma
TTITLE26=Dal dal dal
EXTD=YEAR: 1998 ID3G: 2
EXTT0=
EXTT1=
EXTT2=
EXTT3=
EXTT4=
EXTT5=
EXTT6=
EXTT7=
EXTT8=
EXTT9=
EXTT10=
EXTT11=
EXTT12=
EXTT13=
EXTT14=
EXTT15=
EXTT16=
EXTT17=
EXTT18=
EXTT19=
EXTT20=
EXTT21=
EXTT22=
EXTT23=
EXTT24=
EXTT25=
EXTT26=
PLAYORDER=
